<svg height="24" viewBox="0 0 24 24" width="24" xmlns="http://www.w3.org/2000/svg"><path d="m51.7099018 38.0004226c-4.6757902.1597978-8.4374219 4.0141707-8.4374219 8.7270509 0 1.6767938.4730062 3.2459175 1.2954217 4.57652l-4.482977 7.1248189v.00213c-.1171852.1842989-.1129226.4218711.0117185.6018938.1246414.180039.3451549.2684604.5592949.2247815l5.0878709-1.0141924 2.2499428 3.5028206c.1033365.1619277.2833837.2588716.476197.2535454.1928215-.0053268.3675452-.111859.4612792-.279102l3.0681038-5.4287717 3.0681039 5.4287717c.0937476.1672539.269524.2737839.4612791.279102.1928215.0053265.3739269-.0916177.476197-.2535454l2.2499428-3.5028206 5.0878707 1.0141924c.2151927.0436789.4357253-.0447425.5592949-.2247815.1246413-.1800391.1299676-.4175894.0117188-.6018938l-4.482977-7.1248189c.8224155-1.3305753 1.2954216-2.9009263 1.2954216-4.57652 0-4.1077138-2.8646544-7.5232633-6.6901026-8.4458762v-.00213c-.2940198-.07031-.5901941.1107926-.6605014.4048261-.0703101.2950834.1107926.5901941.404826.661565 3.3525512.8096521 5.855033 3.7785403 5.855033 7.3803578 0 4.2238926-3.4122769 7.6361695-7.6361695 7.6361695s-7.6361695-3.4122769-7.6361695-7.6361695c0-4.1344403 3.2821893-7.4965367 7.3803578-7.6361695.1448827-.0053262.2823201-.0660501.3813722-.1725802.0990738-.1054664.1523388-.2460864.1480789-.3909718-.0042626-.1438164-.0660501-.2812292-.1725801-.3803085-.1054665-.0990739-.2460865-.1523389-.3909719-.148079zm.2215853 3.5453645v.0010663c-.1853653.0234349-.3462185.1384901-.4261255.3068104l-1.2869128 2.6419783-2.9232893.3920355c-.2098665.0245012-.3867174.1672539-.4538339.3653907-.0671138.199214-.0138488.4175894.1384901.5635493l2.1391638 2.0283575-.5283957 2.8720179c-.0308937.1512753.0042599.307874.0969439.4314436.0926813.123575.2343704.2024103.3888447.216259.1097263.0095862.2194553-.014915.3153193-.0681801l2.6078882-1.3721105 2.6078883 1.3721105c.1864289.1012038.4154621.0862915.5869759-.0383499.1715166-.123575.254609-.3345188.2141291-.5411862l-.5283956-2.8720179 2.1391638-2.0283576c.1523388-.1448826.2066702-.3621998.1416864-.5603584-.0660502-.1970841-.2396966-.3409005-.4484886-.3686088l-2.9317437-.3920355-1.2869127-2.6419783c-.1012038-.2119965-.3270462-.3355824-.5624857-.3068104zm.0681801 1.7982633.9204311 1.8834612v.0010664c.0809652.1619277.237564.2737839.4175894.2983015l2.1050738.2812292-1.5255431 1.457363c-.1321002.1246413-.1928214.3068103-.1619277.4857694l.3749905 2.0539115-1.8664435-.9801024c-.1640576-.089485-.3632635-.089485-.5283956 0l-1.8664435.9801024.3749905-2.0539115c.0319601-.1789727-.0287638-.3611362-.1619277-.4857694l-1.5255431-1.457363 2.1050738-.2812292c.1811027-.0245039.3377096-.1363602.4175894-.2983015l.9204311-1.8834612zm-6.7413741 8.9231368c1.4498904 1.7609553 3.5731819 2.9445615 5.9742118 3.1531926l-2.8122922 4.9686919-1.9601774-3.0511952v.0010663c-.1225115-.1896251-.3494093-.2844473-.5710219-.2386302l-4.2015295.8437421 3.5710001-5.6758557zm13.4827482 0 3.5710001 5.6758557-4.2015296-.8437421v.0010663c-.2215852-.0458088-.4484886.0490051-.5710218.2386303l-1.9601775 3.0511952-2.8122921-4.9686919c2.4012208-.2088002 4.5244304-1.3923737 5.9742118-3.1531926z" fill="#7c8898" fill-rule="evenodd" transform="translate(-40 -38)"/></svg>