<svg width="14" height="14" viewBox="0 0 14 14" fill="none" xmlns="http://www.w3.org/2000/svg">
<path d="M12.3877 8.00348C13.2041 7.59788 13.2041 6.40212 12.3877 5.99652L2.55637 1.11185C1.79939 0.735747 1 1.33545 1 2.11533V11.8847C1 12.6645 1.79939 13.2643 2.55637 12.8882L12.3877 8.00348Z" fill="black" stroke="#5A9CFF"/>
<path d="M3.50747 5.13452C3.50747 5.08968 3.46761 5.04982 3.42277 5.04982H2.88469C2.83985 5.04982 2.79999 5.08968 2.79999 5.13452V8.45269C2.79999 8.49753 2.83985 8.53739 2.88469 8.53739H3.42277C3.46761 8.53739 3.50747 8.49753 3.50747 8.45269V5.13452Z" fill="white"/>
<path d="M6.03743 5C4.70717 5 4.30361 6.06122 4.30361 6.78862C4.30361 7.53596 4.70717 8.58223 6.03743 8.58223C6.1869 8.58223 6.36626 8.55732 6.49081 8.53241L7.00897 9.19006C7.04384 9.22992 7.09366 9.25483 7.14847 9.25483H7.80114C7.82107 9.25483 7.841 9.24486 7.85096 9.22494C7.86591 9.20501 7.86093 9.1801 7.84598 9.16017L7.0837 8.26336C7.57694 7.89468 7.76128 7.28186 7.76128 6.78862C7.76128 6.06122 7.35772 5 6.03743 5ZM6.03743 7.92955C5.14561 7.92955 5.02105 7.07261 5.02105 6.78862C5.02105 6.50464 5.14561 5.65766 6.03743 5.65766C6.9143 5.65766 7.04384 6.50464 7.04384 6.78862C7.04384 7.07261 6.9143 7.92955 6.03743 7.92955Z" fill="white"/>
</svg>
