<svg width="16" height="18" viewBox="0 0 16 18" fill="none" xmlns="http://www.w3.org/2000/svg">
<path d="M0 2.22373C0 1.11916 0.895431 0.223724 2 0.223724H14C15.1046 0.223724 16 1.11915 16 2.22372V15.0395C16 16.1441 15.1046 17.0395 14 17.0395H2C0.895431 17.0395 0 16.1441 0 15.0395V2.22373Z" fill="#5A9CFF"/>
<path d="M13.1653 8.0476C13.6116 8.28066 13.6116 8.98261 13.1653 9.21567L3.33389 14.3494C2.94628 14.5518 2.5 14.2392 2.5 13.7654V3.4979C2.5 3.02402 2.94628 2.71146 3.33389 2.91386L13.1653 8.0476Z" fill="black"/>
<path d="M4.50753 6.67104C4.50753 6.62392 4.46767 6.58203 4.42283 6.58203H3.88475C3.83991 6.58203 3.80005 6.62392 3.80005 6.67104V10.1584C3.80005 10.2055 3.83991 10.2474 3.88475 10.2474H4.42283C4.46767 10.2474 4.50753 10.2055 4.50753 10.1584V6.67104Z" fill="white"/>
<path d="M7.03749 6.52966C5.70723 6.52966 5.30367 7.64499 5.30367 8.40949C5.30367 9.19493 5.70723 10.2945 7.03749 10.2945C7.18696 10.2945 7.36632 10.2684 7.49087 10.2422L8.00903 10.9334C8.0439 10.9753 8.09372 11.0014 8.14853 11.0014H8.8012C8.82113 11.0014 8.84106 10.991 8.85102 10.97C8.86597 10.9491 8.86099 10.9229 8.84604 10.902L8.08376 9.95942C8.577 9.57194 8.76134 8.92788 8.76134 8.40949C8.76134 7.64499 8.35778 6.52966 7.03749 6.52966ZM7.03749 9.60859C6.14567 9.60859 6.02111 8.70795 6.02111 8.40949C6.02111 8.11102 6.14567 7.22085 7.03749 7.22085C7.91436 7.22085 8.0439 8.11102 8.0439 8.40949C8.0439 8.70795 7.91436 9.60859 7.03749 9.60859Z" fill="white"/>
</svg>
