<svg enable-background="new 0 0 148.313 55.673" height="55.673" viewBox="0 0 148.313 55.673" width="148.313" xmlns="http://www.w3.org/2000/svg"><path d="m.169 17.582c-.49-.903.138-2.113 1.182-2.113h7.771c.484 0 1.043.849 1.25 1.26l4.09 9.942h.208l4.379-9.942c.416-.829.902-1.26 1.871-1.26h7.016c1.041 0 1.667 1.209 1.177 2.113l-13.19 25.945c-.202.346-.761.747-1.18.747h-.347c-.415 0-.97-.401-1.178-.747z"/><path d="m32.731 17.266c0-.764 1.104-1.797 1.798-1.797h7.637c.694 0 1.767 1.034 1.767 1.797v25.13c0 .693-1.073 1.878-1.767 1.878h-7.637c-.693 0-1.798-1.185-1.798-1.878z"/><path d="m62.476 15.251c2.361 0 5.461.831 5.461 1.319v-14.579c0-.698 1.233-1.776 1.926-1.776h7.705c.696 0 1.571 1.079 1.571 1.776v40.405c0 .693-.875 1.878-1.571 1.878h-3.259c-.7 0-1.18-.905-1.458-1.665l-.836-2.435s-3.195 4.304-9.303 4.304c-7.843 0-13.897-6.631-13.897-14.612 0-9.79 6.235-14.615 13.661-14.615zm1.628 20.204c3.189 0 5.55-2.502 5.55-5.693 0-3.125-2.361-5.554-5.55-5.554-3.195 0-5.624 2.428-5.624 5.554.001 3.191 2.43 5.693 5.624 5.693z"/><path d="m86.25 1.793c0-.62 1.054-1.579 1.675-1.579h7.397c.617 0 1.593.958 1.593 1.579v40.834c0 .616-.976 1.669-1.593 1.669h-7.397c-.621 0-1.675-1.053-1.675-1.669z" fill="#579bd6"/><path d="m126.1 0c12.341 0 22.213 9.934 22.213 22.271 0 8.021-4.629 15.301-11.413 19.43l7.956 12.285c.495.866 0 1.688-.987 1.688h-8.325c-.496 0-.803-.141-.987-.451l-6.54-10.951c-.742.059-1.48.101-1.916.101-12.334 0-22.14-9.783-22.14-22.123-.001-12.337 9.805-22.25 22.139-22.25zm0 34.547c6.787 0 12.341-5.55 12.341-12.277 0-6.784-5.554-12.397-12.341-12.397-6.721 0-12.271 5.613-12.271 12.397 0 6.728 5.55 12.277 12.271 12.277z" fill="#579bd6"/><path d="m43.465 4.087-8.923-4.033c-.168-.077-.623.024-.623.219v8.164c0 .189.352.292.521.217l8.933-4.002c.074-.041.437-.119.437-.221v-.127c0-.103-.27-.179-.345-.217z"/></svg>