<svg width="63" height="24" viewBox="0 0 63 24" fill="none" xmlns="http://www.w3.org/2000/svg">
<path fill-rule="evenodd" clip-rule="evenodd" d="M57.2505 17.9835C60.2695 16.3661 62.3201 13.2028 62.3201 9.56522C62.3201 4.28249 57.9952 0 52.6601 0C47.325 0 43 4.28249 43 9.56522C43 14.8479 47.325 19.1304 52.6601 19.1304C52.8681 19.1304 53.0747 19.1239 53.2795 19.1111L55.9972 23.6522C56.0557 23.7681 56.2079 24 56.3484 24H60.3881C60.6516 24 61.0907 23.8609 60.7394 23.3043C60.4653 22.8702 58.6769 20.1497 57.2505 17.9835ZM52.2523 14.7826C55.1139 14.7826 57.4336 12.4856 57.4336 9.65218C57.4336 6.81871 55.1139 4.52174 52.2523 4.52174C49.3907 4.52174 47.071 6.81871 47.071 9.65218C47.071 12.4856 49.3907 14.7826 52.2523 14.7826Z" fill="white"/>
<path d="M40.3966 0.820972C40.3966 0.486015 40.1508 0 39.8486 0H36.378C36.0758 0 35.83 0.486015 35.83 0.820972V17.7877C35.83 18.1227 36.0758 18.6087 36.378 18.6087H39.8486C40.1508 18.6087 40.3966 18.1227 40.3966 17.7877V0.820972Z" fill="white"/>
<path fill-rule="evenodd" clip-rule="evenodd" d="M30.6759 16.8875L31.1631 18.1739C31.2217 18.2899 31.409 18.5217 31.69 18.5217H33.2708C33.3879 18.4928 33.622 18.3478 33.622 18V0.608696C33.622 0.405797 33.5167 0 33.0951 0H29.758C29.5824 0 29.2311 0.121739 29.2311 0.608696V7.10438C28.4219 6.6219 27.4945 6.34783 26.5087 6.34783C23.3562 6.34783 20.8005 9.15091 20.8005 12.6087C20.8005 16.0665 23.3562 18.8696 26.5087 18.8696C28.1527 18.8696 29.6343 18.1073 30.6759 16.8875ZM27.299 15.1304C28.657 15.1304 29.7579 14.0403 29.7579 12.6957C29.7579 11.351 28.657 10.2609 27.299 10.2609C25.941 10.2609 24.8401 11.351 24.8401 12.6957C24.8401 14.0403 25.941 15.1304 27.299 15.1304Z" fill="white"/>
<path d="M18.6175 6.79795C18.6175 6.57882 18.3812 6.26086 18.0906 6.26086H14.7535C14.4629 6.26086 14.2266 6.57882 14.2266 6.79795V17.8977C14.2266 18.1168 14.4629 18.4348 14.7535 18.4348H18.0906C18.3812 18.4348 18.6175 18.1168 18.6175 17.8977V6.79795Z" fill="white"/>
<path d="M18.6244 2.79326C17.4985 3.33602 15.0103 4.37013 14.7401 4.50724C14.6275 4.53581 14.4023 4.54152 14.4023 4.33585V0.736475C14.4023 0.462237 14.6275 0.507943 14.7401 0.565076L18.6244 2.45046C18.6244 2.45046 18.7933 2.53616 18.7933 2.62186C18.7933 2.70756 18.6244 2.79326 18.6244 2.79326Z" fill="#5A9CFF"/>
<path d="M6.28467 10.6956L4.37841 6.62104C4.27538 6.38092 4.10908 6.26086 3.8515 6.26086H0.514377C0.308309 6.26086 -0.188169 6.43478 0.0752873 7.13043L5.87253 18.1947C5.9498 18.3387 6.10436 18.4348 6.28467 18.4348C6.46497 18.4348 6.64528 18.3387 6.72256 18.1947L12.4577 7.13043C12.535 6.96235 12.7212 6.26086 11.9308 6.26086H8.85717C8.59958 6.26086 8.34547 6.38092 8.24243 6.62104L6.28467 10.6956Z" fill="white"/>
</svg>
